D:\PredSimResults\Vitruvian_Man\IG_v12ms_ATx70.mot
version=1
nRows=7
nColumns=31
inDegrees=yes
endheader
                time	         pelvis_tilt	           pelvis_tx	           pelvis_ty	       hip_flexion_r	        knee_angle_r	       ankle_angle_r	       hip_flexion_l	        knee_angle_l	       ankle_angle_l	    lumbar_extension	          arm_flex_r	          arm_flex_l	hamstrings_r/activation	bifemsh_r/activation	glut_max_r/activation	iliopsoas_r/activation	rect_fem_r/activation	  vasti_r/activation	gastroc_r/activation	 soleus_r/activation	tib_ant_r/activation	hamstrings_l/activation	bifemsh_l/activation	glut_max_l/activation	iliopsoas_l/activation	rect_fem_l/activation	  vasti_l/activation	gastroc_l/activation	 soleus_l/activation	tib_ant_l/activation	
          0.00000000	         -4.23439274	          0.00000000	          0.97652470	         26.74136369	         -0.70832553	         -1.23886434	        -14.46642777	         -6.13336638	          1.79250596	         -7.17370815	          3.90654872	          3.90640636	          0.22643210	          0.05000095	          0.07770370	          0.05000049	          0.07237580	          0.05425196	          0.05000114	          0.06128736	          0.38748535	          0.05372046	          0.14989614	          0.05000039	          0.36201462	          0.05000040	          0.05000035	          0.32171565	          0.27195393	          0.05000014	
          0.01218817	         -4.83711800	          0.01971912	          0.97458422	         25.85364219	          0.43156365	         -2.04712803	        -13.58920939	         -8.55345907	          0.80716953	         -6.01048671	          3.13088311	          3.13073737	          0.21965360	          0.05000072	          0.09408121	          0.05000029	          0.06015638	          0.05004520	          0.06015674	          0.06015677	          0.44038558	          0.05460865	          0.12458837	          0.05000024	          0.30089261	          0.05000023	          0.05000016	          0.26739757	          0.22603760	          0.05000008	
          0.02437634	         -5.44363455	          0.03978462	          0.97273914	         24.97334191	          1.16844770	         -3.43532372	        -12.48270292	        -11.35196269	         -0.48611246	         -4.77811701	          2.26635727	          2.26620875	          0.20579501	          0.05311335	          0.12730069	          0.05000016	          0.05000035	          0.05000151	          0.05000015	          0.05000005	          0.62817311	          0.05630425	          0.10355332	          0.05000043	          0.25009027	          0.05000017	          0.05000011	          0.22225048	          0.18787367	          0.05000006	
          0.03656451	         -6.05427346	          0.05957708	          0.97148182	         24.12678979	          2.03017443	         -5.63630311	        -11.04178126	        -14.58045252	         -2.35954547	         -3.55503046	          1.40111244	          1.40096191	          0.19955497	          0.05000402	          0.15439779	          0.05000015	          0.05000044	          0.05000262	          0.05000012	          0.05000004	          0.79485914	          0.05000176	          0.08606974	          0.05000024	          0.20786533	          0.05000022	          0.05000007	          0.18472596	          0.15615329	          0.05000009	
          0.04875268	         -6.65818808	          0.07865213	          0.97108861	         23.43015544	          2.60873216	         -7.29647742	         -9.25887748	        -18.17355199	         -4.92241225	         -2.40725515	          0.60096538	          0.60081370	          0.19402012	          0.05000261	          0.18741267	          0.05000011	          0.05000034	          0.05000390	          0.05000011	          0.05000005	          0.88682159	          0.05000048	          0.07153805	          0.05000023	          0.17276960	          0.05000025	          0.05000008	          0.15353704	          0.12978855	          0.31598040	
          0.06094085	         -7.24481236	          0.09676318	          0.97147641	         22.88636138	          2.91184190	         -8.47098055	         -7.23657673	        -21.96489544	         -7.26138713	         -1.37236041	         -0.09596962	         -0.09612166	          0.17719102	          0.05000233	          0.19732580	          0.05000015	          0.05000048	          0.05000506	          0.05000012	          0.05000005	          0.93755823	          0.05000016	          0.05946028	          0.05000015	          0.14359939	          0.09201054	          0.05000006	          0.12761404	          0.10787520	          0.37022852	
          0.07312902	         -7.80200706	          0.11395492	          0.97251695	         22.45452218	          2.99230392	         -9.19283637	         -5.15959190	        -25.63833507	         -7.29510286	         -0.45567584	         -0.69176949	         -0.69192112	          0.16608171	          0.05000449	          0.20015729	          0.05000028	          0.05000075	          0.05000333	          0.05000018	          0.05000009	          0.96555013	          0.05000021	          0.06965314	          0.05000008	          0.11935429	          0.15264020	          0.05000004	          0.10606785	          0.08966168	          0.43035781	
